# xmcd CD database file
#
# Track frame offsets:
#	150
#	13872
#	24176
#	37568
#	60038
#	71958
#	84159
#	109878
#	121869
#	141335
#	155053
#	176133
#	189505
#
# Disc length: 2751 seconds
#
# Revision: 0
# Processed by: cddbd v1.5PL3 Copyright (c) Steve Scherf et al.
# Submitted via: CDex 1.51
#
DISCID=a10abd0d
DTITLE=Jokke Schreurs Trio - Jokke Schreurs Trio
DYEAR=2001
DGENRE=Jazz
TTITLE0=Stockholm
TTITLE1=Sinti swing
TTITLE2=Improvisation
TTITLE3=Swing 39
TTITLE4=Papillons noirs
TTITLE5=Regensburg
TTITLE6=Bilo Bilo
TTITLE7=En la Manana
TTITLE8=Mount Harissa
TTITLE9=Site Waltz
TTITLE10=Nuage
TTITLE11=No oechadietje, moi kalajoeka
TTITLE12=Les facteurs
EXTD=YEAR: 2001
EXTT0=
EXTT1=
EXTT2=
EXTT3=
EXTT4=
EXTT5=
EXTT6=
EXTT7=
EXTT8=
EXTT9=
EXTT10=
EXTT11=
EXTT12=
PLAYORDER=
